<svg xmlns="http://www.w3.org/2000/svg" xmlns:xlink="http://www.w3.org/1999/xlink" width="30"
    height="30" viewBox="0 0 512 512" preserveAspectRatio="xMidYMid meet">
    <path
        d="M299.53,77.51l13.33,45.66l45.13,14.93c3.78,1.24 6.53,4.52 7.02,8.5c0.58,3.95 -1.15,7.85 -4.44,10.07l-39.25,26.74l-0.21,47.53c0,3.41 -1.69,6.56 -4.44,8.49c-0.43,0.3 -0.89,0.59 -1.4,0.83c-3.56,1.73 -7.8,1.29 -10.94,-1.14l-28.27,-21.89l-46.77,216.78c-0.5,2.83 -2.1,5.18 -4.28,6.71c-2.19,1.53 -4.99,2.22 -7.82,1.72c-5.68,-1.01 -9.48,-6.42 -8.46,-12.09l46.76,-216.8l-34.02,10.87c-3.78,1.23 -7.95,0.18 -10.69,-2.67c-2.73,-2.86 -3.64,-7.03 -2.3,-10.77l16.02,-44.72l-27.77,-38.6c-2.3,-3.23 -2.59,-7.48 -0.73,-10.98c1.87,-3.51 5.55,-5.66 9.53,-5.54l47.5,1.45l28.1,-38.32c2.35,-3.21 6.3,-4.8 10.21,-4.11c3.9,0.69 7.07,3.54 8.19,7.35zM294.37,134.27l-8.95,-30.6l-18.84,25.69c-2.04,2.76 -5.29,4.37 -8.73,4.26l-31.86,-0.97l18.62,25.89c2.03,2.79 2.54,6.4 1.37,9.62l-10.74,29.99l30.32,-9.69c3.27,-1.06 6.85,-0.42 9.57,1.69l25.23,19.52l0.13,-31.88c0.02,-3.44 1.75,-6.63 4.56,-8.57l26.33,-17.94l-30.28,-10.01c-3.23,-1.09 -5.76,-3.7 -6.73,-7zM35.96,280.01c-0.04,-0.2 -0.2,-0.4 -0.3,-0.57v-6.19c0.12,-0.26 0.28,-0.5 0.34,-0.76c0.43,-1.95 1.38,-3.61 2.77,-5c17.22,-17.34 34.45,-34.69 51.69,-52.01c2.83,-2.85 6.32,-3.67 10.11,-2.43c3.82,1.24 6.1,3.99 6.74,7.98c0.51,3.29 -0.44,6.22 -2.82,8.62c-11.95,12.02 -23.92,24.05 -35.89,36.1c-3.33,3.35 -6.66,6.7 -9.99,10.07c-0.16,0.16 -0.32,0.32 -0.49,0.52c0.21,0.26 0.41,0.48 0.63,0.7l45.72,46.02c5.45,5.49 3.09,14.74 -4.34,16.76c-3.65,0.99 -6.94,0.14 -9.65,-2.56c-3.23,-3.21 -6.42,-6.46 -9.63,-9.69c-13.9,-14 -27.81,-28.01 -41.74,-42.01c-1.59,-1.58 -2.72,-3.33 -3.15,-5.55zM483.66,272.65c0.02,2.41 0.02,4.83 0.02,7.22c-0.1,0.34 -0.2,0.7 -0.3,1.04c-0.47,1.59 -1.31,2.95 -2.48,4.15c-5.82,5.86 -11.63,11.75 -17.44,17.61c-1.96,2 -3.92,3.97 -5.88,5.97c-6.9,6.96 -13.8,13.92 -20.69,20.88c-2.54,2.57 -5.04,5.19 -7.63,7.72c-2.9,2.81 -6.37,3.61 -10.15,2.36c-3.83,-1.28 -6.09,-4.07 -6.68,-8.12c-0.48,-3.31 0.55,-6.15 2.89,-8.5c7.53,-7.62 15.07,-15.22 22.6,-22.84c6.48,-6.54 12.94,-13.09 19.42,-19.63c1.37,-1.38 2.75,-2.71 4.2,-4.15c-0.26,-0.28 -0.43,-0.48 -0.63,-0.68c-3.37,-3.41 -6.74,-6.8 -10.09,-10.21c-8.7,-8.78 -17.4,-17.57 -26.1,-26.35c-3.19,-3.21 -6.42,-6.41 -9.56,-9.68c-2.67,-2.79 -3.52,-6.16 -2.39,-9.89c1.13,-3.71 3.68,-6.06 7.45,-6.88c3.53,-0.76 6.64,0.24 9.19,2.81c6.94,7 13.88,14.02 20.81,21.02c7.71,7.8 15.44,15.6 23.15,23.38c2.54,2.58 5.1,5.13 7.63,7.72c1.31,1.36 2.24,2.94 2.52,4.85c0.02,0.08 0.1,0.14 0.14,0.2z"
        fill="currentColor"></path>
</svg>